<?xml version="1.0" standalone="no"?>
<!DOCTYPE svg PUBLIC "-//W3C//DTD SVG 20010904//EN"
 "http://www.w3.org/TR/2001/REC-SVG-20010904/DTD/svg10.dtd">
<svg version="1.0" xmlns="http://www.w3.org/2000/svg"
 width="512pt" height="512pt" viewBox="0 0 512 512"
 preserveAspectRatio="xMidYMid meet">

<g transform="translate(0.000000,512.000000) scale(0.100000,-0.100000)"
fill="#000000" stroke="none">
<path d="M1635 2850 c-123 -335 -246 -650 -260 -695 -30 -90 -10 -115 90 -115
113 0 140 49 305 510 106 285 197 515 203 515 6 0 30 -65 54 -145 20 -66 58
-95 113 -87 92 14 92 23 -3 275 -68 172 -93 194 -185 165 -85 -27 -95 -45
-317 -570z"/>
<path d="M2495 2980 c155 -410 205 -495 300 -505 108 -12 127 0 85 54 -20 26
-84 195 -140 375 -108 350 -95 386 170 505 90 38 205 46 365 25 270 -38 413
-150 585 -448 150 -259 198 -532 148 -885 -35 -236 -112 -426 -233 -570 -208
-254 -515 -398 -945 -435 -520 -44 -888 147 -1070 581 -101 235 -128 452 -81
660 50 219 165 387 435 605 152 121 272 198 430 280 150 78 290 134 500 194
105 31 283 69 380 84 117 19 215 24 460 24 l310 0 170 -110 c185 -121 245
-181 309 -307 108 -205 106 -448 -5 -660 -108 -203 -270 -340 -471 -400 -134
-41 -289 -55 -451 -41 -71 7 -156 19 -190 28 -33 9 -102 30 -155 45 l-95 26
48 28 c165 95 325 277 390 453 102 271 106 576 12 813 -117 292 -413 475
-805 510 -172 15 -452 7 -594 -16 l-80 -13 20 -52z"/>
</g>
</svg>
